<?xml version="1.0" encoding="utf-8"?>
<svg version="1.1" xmlns="http://www.w3.org/2000/svg" xmlns:xlink="http://www.w3.org/1999/xlink" x="0px" y="0px"
	 viewBox="0 0 1920 1080" style="enable-background:new 0 0 1920 1080;" xml:space="preserve">
<path class="st0" d="M574.11,370.06V37c-35.41,0-64.05,28.64-64.05,64.05c0,23.66,12.81,44.3,31.85,55.51v61.03
	c-67.96,5.69-130.23,32.2-180.23,73.12l-38.07-38.25c1.42-5.52,2.31-11.21,2.31-17.26c0-35.41-28.65-64.23-64.05-64.23
	s-64.23,28.82-64.23,64.23s28.82,64.05,64.23,64.05c5.34,0,10.5-0.71,15.3-1.96l38.79,38.79c-41.63,50.17-68.85,112.8-74.73,181.47
	h-57.47c-11.21-19.04-31.67-31.85-55.33-31.85c-35.41,0-64.23,28.82-64.23,64.23s28.82,64.05,64.23,64.05
	c23.66,0,44.3-12.81,55.51-31.85h57.82c6.94,66.72,33.98,127.39,74.9,176.32l-43.06,43.06c-3.74-0.71-7.65-1.07-11.74-1.07
	c-35.41,0-64.23,28.82-64.23,64.23s28.82,64.05,64.23,64.05s64.05-28.65,64.05-64.05c0-7.29-1.25-14.23-3.38-20.82l40.03-40.03
	c49.99,40.56,111.73,66.72,179.34,72.41v61.2c-19.04,11.03-31.85,31.85-31.85,55.51c0,35.41,28.64,64.05,64.05,64.05V729.63
	c-99.1,0-179.7-80.6-179.7-179.7S475.01,370.06,574.11,370.06z M341.22,361.34l47.5,47.5c-23.84,31.14-39.85,68.32-45.37,108.71
	h-66.36C282.68,458.66,305.81,404.93,341.22,361.34z M341.75,733.37c-34.34-42.34-57.47-94.3-64.23-151.23h65.83
	c5.34,39.32,20.82,75.61,43.41,106.22L341.75,733.37z M431.95,734.44c31.31,24.2,69.03,40.57,109.95,46.26v59.96
	c-57.82-5.52-110.84-27.93-154.08-62.09L431.95,734.44z M386.94,315.97c43.41-34.69,96.79-57.29,154.97-62.81V319
	c-39.85,5.52-76.68,21.17-107.46,44.48L386.94,315.97z"/>
<rect x="618.77" y="37" class="st0" width="14.59" height="1020"/>
<g>
	<path class="st0" d="M807.4,385.05l-33.62,31.7h-57.94l-33.62-31.7V251.68l33.62-31.7h57.94l33.62,31.7v25.69h-33.62v-15.85
		l-9.84-9.84h-38.26l-9.84,9.84v113.7l9.84,9.84h38.26l9.84-9.84v-15.85h33.62V385.05z"/>
	<path class="st0" d="M996.81,251.68h-12.3l-57.67,165.08h-31.16l-57.39-165.08h-12.3v-31.7h60.95v31.7h-18.86l43.18,122.72
		l43.46-122.72h-18.86v-31.7h60.95V251.68z"/>
	<path class="st0" d="M1076.34,335.58h-55.21v-33.62h55.21V335.58z"/>
	<path class="st0" d="M1236.5,385.05l-33.62,31.7h-57.94l-33.62-31.7V251.68l33.62-31.7h57.94l33.62,31.7v25.69h-33.62v-15.85
		l-9.84-9.84h-38.26l-9.84,9.84v113.7l9.84,9.84h38.26l9.84-9.84v-15.85h33.62V385.05z"/>
	<path class="st0" d="M1414.97,416.76h-63.96v-31.7h16.12l-28.7-51.93h-26.24v51.93h17.22v31.7h-67.23v-31.7h16.94V251.68h-16.94
		v-31.7h107.14l33.62,31.7v51.11l-31.7,27.88l31.43,54.39h12.3V416.76z M1369.33,292.95v-31.43l-9.84-9.84h-47.28v51.11h47.28
		L1369.33,292.95z"/>
	<path class="st0" d="M1570.21,416.76h-135.56v-31.7h16.94V251.68h-16.94v-31.7h135.56v57.39h-31.98v-25.69h-53.57v50.29h46.74
		v27.06h-46.74v56.03h53.57v-25.69h31.98V416.76z"/>
	<path class="st0" d="M1830.67,251.68h-12.03l-41,165.08h-35.8l-29.79-113.97l-29.79,113.97h-35.8l-41-165.08h-12.03v-31.7h62.04
		v31.7h-17.22l27.06,113.42l34.71-145.13h24.05l34.71,145.13l27.06-113.42h-17.22v-31.7h62.04V251.68z"/>
	<path class="st0" d="M714.75,658.64h-31.71v-31.7h31.71V658.64z"/>
	<path class="st0" d="M872.45,626.93l-33.62,31.7h-57.94l-33.62-31.7V493.56l33.62-31.7h57.94l33.62,31.7v25.69h-33.62V503.4
		l-9.84-9.84h-38.26l-9.84,9.84v113.7l9.84,9.84h38.26l9.84-9.84v-15.85h33.62V626.93z"/>
	<path class="st0" d="M1038.35,626.93l-33.62,31.7h-69.42l-33.62-31.7V493.56l33.62-31.7h69.42l33.62,31.7V626.93z M1004.73,617.1
		V503.4l-9.84-9.84h-49.74l-9.84,9.84v113.7l9.84,9.84h49.74L1004.73,617.1z"/>
	<path class="st0" d="M1262.74,658.64h-63.96v-34.16h16.4V511.6l-43.73,77.35h-12.57l-43.73-77.35v112.88h16.4v34.16h-63.96v-34.16
		h15.58V493.56h-15.58v-31.7h50.56l47.01,83.63l47.01-83.63h50.56v31.7h-15.58v130.92h15.58V658.64z"/>
</g>
<g>
	<g>
		<path class="st1" d="M766.3,780.16c12.18-1.81,23.46-4.74,33.15-8.8c0,10.15,0,20.3,0,30.67v46.69c0,15.11-0.9,24.58-5.19,36.76
			c-7.89,22.55-21.88,39.47-27.06,43.98c-2.26,1.8-4.06,2.48-5.86,2.48c-3.38,0-8.35-4.74-8.35-10.15c0-2.93,0.9-4.28,3.61-5.19
			c8.34-2.25,14.21-4.51,17.37-8.57c2.71-3.16,4.51-8.12,5.86-15.79c1.35-9.47,1.8-23,1.8-43.75v-44.66
			c0-15.11-1.13-16.01-15.34-18.04V780.16z M789.53,748.81c-6.32,0-11.5-5.41-11.5-11.5c0-6.99,5.19-11.95,11.73-11.95
			c6.09,0,11.05,4.96,11.05,11.95C800.81,743.4,795.84,748.81,789.53,748.81z"/>
		<path class="st1" d="M875.45,771.81c28.19,0,49.16,21.43,49.16,50.52c0,36.53-27.06,53.9-49.16,53.9
			c-31.12,0-50.07-25.03-50.07-50.29C825.38,789.18,854.03,771.81,875.45,771.81z M872.75,779.48c-13.76,0-26.16,13.31-26.16,39.47
			c0,28.64,12.63,49.39,31.12,49.39c13.98,0,25.71-10.15,25.71-41.05C903.42,800.91,892.59,779.48,872.75,779.48z"/>
		<path class="st1" d="M986.64,774.07c3.83-1.58,7.22-2.26,9.93-2.26c24.13,0,44.43,20.97,44.43,47.81
			c0,30.45-26.16,56.83-55.71,56.61c-9.7,0-22.33-2.26-34.73-8.12c0-5.86,0-11.95,0-18.04V741.37c0-13.98-0.68-15.34-15.11-16.46
			v-5.86c10.6-1.35,24.58-4.74,32.93-7.67c0,8.8,0,17.82,0,26.84v43.75L986.64,774.07z M968.37,847.37c0,3.61,0.23,5.64,1.13,7.89
			c2.71,5.64,11.5,12.18,22.33,12.18c19.4,0,29.09-16.69,29.09-42.17c0-25.71-15.56-40.82-34.28-40.82
			c-6.54,0-13.98,2.03-18.27,4.28V847.37z"/>
		<path class="st1" d="M1171.57,873.53v-6.32c13.08-1.35,14.89-2.48,14.89-17.37v-36.99c0-18.72-7.22-28.19-22.33-27.97
			c-8.57,0-17.59,4.29-23.91,11.73v53.23c0,14.66,1.8,16.01,15.34,17.37v6.32h-49.17v-6.32c13.08-1.13,16.01-2.25,16.01-17.37
			V741.14c0-11.95-0.68-14.89-15.79-16.24v-5.86c11.95-1.13,25.48-4.51,33.6-7.67c0,8.8,0,18.72,0,27.97v48.94
			c8.12-8.12,20.52-16.46,32.7-16.46c18.49,0,31.35,11.5,31.35,38.57v39.69c0,14.89,1.8,16.01,14.88,17.14v6.32H1171.57z"/>
		<path class="st1" d="M1313.88,854.36c-14.43,18.04-30.22,21.88-37.44,21.88c-27.51,0-44.21-22.55-44.21-48.49
			c0-15.34,5.41-29.54,14.66-39.47c9.47-10.6,21.88-16.46,33.6-16.46c19.62,0,34.51,16.91,34.51,34.96
			c-0.22,4.51-0.9,6.54-4.51,7.44c-4.51,0.9-33.38,2.93-60.22,3.83c-0.68,30.22,17.82,42.63,33.83,42.63
			c9.25,0,17.82-3.83,26.16-11.5L1313.88,854.36z M1275.09,780.38c-10.37,0-20.52,9.7-23.68,27.97c12.63,0,25.26,0,38.56-0.68
			c4.06,0,5.41-1.13,5.41-4.51C1295.61,791.21,1287.72,780.38,1275.09,780.38z"/>
		<path class="st1" d="M1380.41,873.53h-51.87v-6.32c14.21-1.35,15.56-2.48,15.56-17.14v-46.91c0-14.88-0.9-15.56-13.98-17.14v-5.64
			c11.05-1.8,21.2-4.51,31.8-9.25c0,7.44,0,17.37,0,24.81c7.89-11.73,17.37-24.13,28.64-24.13c8.35,0,13.08,5.19,13.08,10.83
			c0,5.19-3.61,10.15-7.67,12.4c-2.26,1.35-4.06,1.13-5.86-0.45c-3.38-3.38-6.09-5.64-10.15-5.64c-4.74,0-13.08,6.99-18.04,18.49
			v42.4c0,14.88,1.13,16.01,18.49,17.37V873.53z"/>
		<path class="st1" d="M1493.18,854.36c-14.43,18.04-30.22,21.88-37.44,21.88c-27.51,0-44.21-22.55-44.21-48.49
			c0-15.34,5.41-29.54,14.66-39.47c9.47-10.6,21.88-16.46,33.6-16.46c19.62,0,34.51,16.91,34.51,34.96
			c-0.22,4.51-0.9,6.54-4.51,7.44c-4.51,0.9-33.38,2.93-60.22,3.83c-0.68,30.22,17.82,42.63,33.83,42.63
			c9.25,0,17.82-3.83,26.16-11.5L1493.18,854.36z M1454.38,780.38c-10.37,0-20.52,9.7-23.68,27.97c12.63,0,25.26,0,38.56-0.68
			c4.06,0,5.41-1.13,5.41-4.51C1474.91,791.21,1467.01,780.38,1454.38,780.38z"/>
	</g>
</g>
</svg>
