<svg height="512pt" viewBox="0 -30 512 512" width="512pt" xmlns="http://www.w3.org/2000/svg">
    <path d="m199.765625 306.714844c-3.492187 0-6.988281-.90625-10.1875-2.730469-6.496094-3.714844-10.378906-10.386719-10.378906-17.871094v-179.695312c0-7.484375 3.882812-14.15625 10.378906-17.867188 6.5-3.703125 14.214844-3.644531 20.648437.171875l152.054688 89.835938c6.324219 3.738281 10.105469 10.359375 10.105469 17.707031s-3.78125 13.96875-10.105469 17.699219l-152.0625 89.855468c-3.261719 1.929688-6.851562 2.894532-10.453125 2.894532zm.007813-203.8125c-.742188 0-1.355469.257812-1.742188.480468-.65625.367188-1.765625 1.269532-1.765625 3.035157v179.703125c0 1.769531 1.109375 2.664062 1.765625 3.039062.660156.367188 2 .855469 3.507812-.023437l152.066407-89.859375c1.492187-.886719 1.714843-2.269532 1.714843-3.011719s-.222656-2.125-1.722656-3.019531l-152.058594-89.839844c-.628906-.375-1.234374-.503906-1.765624-.503906zm0 0"/>
    <path d="m409.601562 452.265625c-56.464843 0-102.402343-45.933594-102.402343-102.398437 0-56.464844 45.9375-102.402344 102.402343-102.402344 56.464844 0 102.398438 45.9375 102.398438 102.402344 0 56.464843-45.933594 102.398437-102.398438 102.398437zm0-187.730469c-47.054687 0-85.335937 38.277344-85.335937 85.332032 0 47.050781 38.28125 85.332031 85.335937 85.332031 47.050782 0 85.332032-38.28125 85.332032-85.332031 0-47.054688-38.28125-85.332032-85.332032-85.332032zm0 0"/>
    <path d="m322.226562 392.535156h-265.097656c-31.503906 0-57.128906-25.636718-57.128906-57.132812v-278.273438c0-31.496094 25.625-57.128906 57.128906-57.128906h397.742188c31.503906 0 57.128906 25.632812 57.128906 57.128906v278.265625c0 2.441407-.195312 4.8125-.488281 7.167969-.542969 4.324219-4.28125 7.550781-8.625 7.464844-4.359375-.082032-7.960938-3.4375-8.347657-7.78125-3.914062-44.304688-40.429687-77.710938-84.9375-77.710938-47.054687 0-85.335937 38.277344-85.335937 85.332032 0 10.546874 1.988281 20.992187 5.914063 31.027343 1.023437 2.628907.691406 5.589844-.894532 7.917969-1.597656 2.328125-4.234375 3.722656-7.058594 3.722656zm-265.097656-375.46875c-22.089844 0-40.0625 17.972656-40.0625 40.0625v278.265625c0 22.101563 17.972656 40.070313 40.0625 40.070313h253.363282c-2.183594-8.378906-3.292969-16.953125-3.292969-25.597656 0-56.464844 45.9375-102.402344 102.402343-102.402344 35.632813 0 67.003907 17.855468 85.332032 45.527344v-235.863282c0-22.089844-17.972656-40.0625-40.0625-40.0625zm0 0"/>
    <path d="m409.601562 418.132812c-4.710937 0-8.535156-3.8125-8.535156-8.53125v-119.46875c0-4.71875 3.824219-8.53125 8.535156-8.53125 4.707032 0 8.53125 3.8125 8.53125 8.53125v119.46875c0 4.71875-3.824218 8.53125-8.53125 8.53125zm0 0"/>
    <path d="m469.332031 358.398438h-119.464843c-4.710938 0-8.535157-3.8125-8.535157-8.53125s3.824219-8.535157 8.535157-8.535157h119.464843c4.710938 0 8.535157 3.816407 8.535157 8.535157s-3.824219 8.53125-8.535157 8.53125zm0 0"/>
</svg>