<svg height="444pt" viewBox="0 -13 444.00238 444" width="444pt" xmlns="http://www.w3.org/2000/svg">
    <path d="m374 210.609375v-68.648437c-.03125-26.070313-21.160156-47.191407-47.230469-47.21875h-2.097656v-1.191407c-.027344-26.070312-21.152344-47.195312-47.222656-47.230469h-75.488281c-.859376.003907-1.675782-.359374-2.253907-.992187l-27.390625-29.957031c-8.953125-9.78125-21.597656-15.355469-34.855468-15.371094h-90.242188c-26.066406.03125-47.1875 21.15625-47.21875 47.222656v263.566406c.03125 26.066407 21.152344 47.1875 47.21875 47.21875h193.628906c21.136719 43.25 68.550782 67.058594 115.863282 58.1875 47.316406-8.871093 82.882812-48.242187 86.914062-96.210937 4.035156-47.96875-24.457031-92.726563-69.625-109.375zm-326.78125 133.402344c-18.339844-.019531-33.199219-14.882813-33.21875-33.222657v-263.566406c.019531-18.339844 14.882812-33.199218 33.21875-33.222656h90.242188c9.328124.011719 18.222656 3.933594 24.523437 10.8125l27.375 29.945312c3.230469 3.542969 7.804687 5.5625 12.601563 5.5625h75.488281c18.34375.023438 33.203125 14.890626 33.222656 33.230469v1.191407h-178.773437c-26.066407.027343-47.1875 21.152343-47.21875 47.21875v168.828124c-.023438 18.339844-14.886719 33.199219-33.230469 33.21875zm37.757812 0c8.78125-8.824219 13.707032-20.769531 13.703126-33.21875v-168.832031c.019531-18.335938 14.878906-33.199219 33.21875-33.21875h194.871093c18.339844.015624 33.207031 14.878906 33.230469 33.21875v64.546874c-37.453125-8.214843-76.4375 4.226563-102.210938 32.621094-25.769531 28.390625-34.390624 68.394532-22.601562 104.878906zm204.144532 46.792969c1.644531-24.042969 21.667968-41.792969 47.878906-41.792969 26.179688 0 46.183594 17.710937 47.871094 41.699219-29.453125 17.695312-66.261719 17.730468-95.75.085937zm108.554687-9.371094c-2.429687-11.511719-8.382812-21.980469-17.03125-29.953125-11.488281-10.621094-26.988281-16.46875-43.644531-16.46875s-32.15625 5.847656-43.644531 16.46875c-8.667969 7.988281-14.625 18.480469-17.046875 30.015625-2.414063-2.089844-4.722656-4.300782-6.914063-6.621094-26.128906-27.621094-32.824219-68.363281-16.902343-102.890625 15.925781-34.527344 51.257812-55.890625 89.230468-53.949219s70.941406 26.796875 83.261719 62.765625c12.316406 35.972657 1.503906 75.820313-27.308594 100.632813zm0 0"/>
    <path d="m337 239.011719c-23.195312 0-42 18.804687-42 42 0 23.195312 18.804688 42 42 42s42-18.804688 42-42c-.027344-23.183594-18.816406-41.972657-42-42zm0 70c-15.464844 0-28-12.535157-28-28 0-15.464844 12.535156-28 28-28s28 12.535156 28 28c-.015625 15.457031-12.542969 27.980469-28 28zm0 0"/>
</svg>