<svg height="526pt" viewBox="-16 -79 526.66488 526" width="526pt" xmlns="http://www.w3.org/2000/svg"><path d="m28.933594 239.230469c-1.40625 0-2.839844-.351563-4.152344-1.089844-6.929688-3.882813-13.84375-7.964844-20.746094-12.238281-2.511718-1.554688-4.035156-4.292969-4.035156-7.242188v-38.839844c0-48.632812 28.59375-93.089843 72.84375-113.273437l136.789062-62.355469c23.671876-10.792968 50.8125-10.792968 74.480469 0l136.792969 62.355469c44.25 20.179687 72.84375 64.640625 72.84375 113.273437v38.839844c0 3.066406-1.652344 5.902344-4.328125 7.417969-7.125 4.023437-14.234375 7.863281-21.34375 11.554687-4.171875 2.171876-9.304687.539063-11.476563-3.632812-2.167968-4.175781-.535156-9.308594 3.636719-11.484375 5.488281-2.847656 10.980469-5.796875 16.484375-8.84375v-33.851563c0-41.984374-24.679687-80.359374-62.878906-97.773437l-136.789062-62.359375c-19.179688-8.742188-41.175782-8.761719-60.351563 0l-136.792969 62.359375c-38.203125 17.414063-62.886718 55.789063-62.886718 97.773437v34.078126c5.359374 3.25 10.710937 6.382812 16.085937 9.394531 4.097656 2.292969 5.5625 7.480469 3.257813 11.585937-1.558594 2.789063-4.453126 4.351563-7.433594 4.351563zm0 0"/><path d="m443.359375 276.960938h-392.972656c-14.039063 0-25.460938-11.417969-25.460938-25.449219v-34.222657c0-14.03125 11.421875-25.453124 25.460938-25.453124h160.519531c4.703125 0 8.515625 3.808593 8.515625 8.511718 0 4.707032-3.8125 8.511719-8.515625 8.511719h-160.519531c-4.652344 0-8.429688 3.785156-8.429688 8.429687v34.222657c0 4.644531 3.777344 8.425781 8.429688 8.425781h392.972656c4.652344 0 8.4375-3.78125 8.4375-8.425781v-34.222657c0-4.644531-3.785156-8.429687-8.4375-8.429687h-169.035156c-4.703125 0-8.511719-3.804687-8.511719-8.511719 0-4.703125 3.808594-8.511718 8.511719-8.511718h169.035156c14.039063 0 25.464844 11.421874 25.464844 25.453124v34.222657c0 14.027343-11.425781 25.449219-25.464844 25.449219zm0 0"/><path d="m239.558594 363.898438c-80.511719 0-158.570313-11.941407-233.625-35.824219-3.535156-1.125-5.933594-4.40625-5.933594-8.113281v-51.507813c0-4.707031 3.808594-8.515625 8.515625-8.515625h476.722656c4.699219 0 8.511719 3.808594 8.511719 8.515625v51.507813c0 3.816406-2.535156 7.164062-6.210938 8.195312-84.714843 23.828125-167.574218 35.742188-247.980468 35.742188zm-222.535156-50.1875c143.316406 44.28125 297.894531 44.199218 459.699218-.21875v-36.53125h-459.699218zm468.214843 6.25h.082031zm0 0"/><path d="m242.617188 244.648438c-22.175782 0-40.214844-18.039063-40.214844-40.21875 0-9.410157 3.234375-18.277344 9.085937-25.363282-5.859375-7.09375-9.085937-15.953125-9.085937-25.363281 0-22.183594 18.039062-40.222656 40.214844-40.222656 22.171874 0 40.21875 18.042969 40.21875 40.222656 0 9.410156-3.234376 18.269531-9.085938 25.363281 5.851562 7.085938 9.085938 15.953125 9.085938 25.363282 0 22.179687-18.039063 40.21875-40.21875 40.21875zm0-114.140626c-12.789063 0-23.191407 10.410157-23.191407 23.191407 0 7.316406 3.4375 14.070312 9.425781 18.539062 2.15625 1.605469 3.429688 4.128907 3.429688 6.824219 0 2.691406-1.273438 5.222656-3.429688 6.824219-5.988281 4.464843-9.425781 11.222656-9.425781 18.539062 0 12.785157 10.402344 23.195313 23.191407 23.195313 12.792968 0 23.195312-10.410156 23.195312-23.195313 0-7.316406-3.4375-14.074219-9.429688-18.539062-2.15625-1.601563-3.429687-4.132813-3.429687-6.824219 0-2.695312 1.277344-5.21875 3.429687-6.824219 5.992188-4.46875 9.429688-11.222656 9.429688-18.539062 0-12.78125-10.402344-23.191407-23.195312-23.191407zm0 0"/><path d="m187.285156 183.324219h-34.054687c-4.699219 0-8.507813-3.808594-8.507813-8.515625 0-4.703125 3.808594-8.515625 8.507813-8.515625h34.054687c4.699219 0 8.511719 3.8125 8.511719 8.515625 0 4.707031-3.8125 8.515625-8.511719 8.515625zm0 0"/><path d="m187.285156 132.246094c-2.175781 0-4.359375-.832032-6.019531-2.496094l-17.027344-17.027344c-3.320312-3.324218-3.320312-8.710937 0-12.039062 3.324219-3.320313 8.714844-3.320313 12.039063 0l17.023437 17.03125c3.328125 3.320312 3.328125 8.710937 0 12.035156-1.660156 1.664062-3.835937 2.496094-6.015625 2.496094zm0 0"/><path d="m332.003906 183.324219h-34.050781c-4.699219 0-8.515625-3.808594-8.515625-8.515625 0-4.703125 3.816406-8.515625 8.515625-8.515625h34.050781c4.703125 0 8.511719 3.8125 8.511719 8.515625 0 4.707031-3.808594 8.515625-8.511719 8.515625zm0 0"/><path d="m297.953125 132.246094c-2.175781 0-4.355469-.832032-6.019531-2.496094-3.324219-3.324219-3.324219-8.714844 0-12.035156l17.027344-17.03125c3.324218-3.320313 8.710937-3.320313 12.039062 0 3.320312 3.328125 3.320312 8.714844 0 12.039062l-17.027344 17.027344c-1.664062 1.664062-3.84375 2.496094-6.019531 2.496094zm0 0"/><path d="m238.363281 106.707031c-4.703125 0-8.515625-3.808593-8.515625-8.515625v-25.539062c0-4.707032 3.8125-8.511719 8.515625-8.511719s8.511719 3.804687 8.511719 8.511719v25.539062c0 4.707032-3.808594 8.515625-8.511719 8.515625zm0 0"/></svg>