<?xml version="1.0" encoding="iso-8859-1"?>
<!-- Generator: Adobe Illustrator 19.0.0, SVG Export Plug-In . SVG Version: 6.00 Build 0)  -->
<svg version="1.1" id="Layer_1" xmlns="http://www.w3.org/2000/svg" xmlns:xlink="http://www.w3.org/1999/xlink" x="0px" y="0px"
	 viewBox="0 0 240.952 240.952" style="enable-background:new 0 0 240.952 240.952;" xml:space="preserve">
<g>
	<g>
		<path d="M233.512,113.038h-10.084c-3.348,0-6.156,2.24-7.084,5.292h-14.92c-0.552-20.4-8.844-38.888-22.108-52.744l16.824-16.608
			c1.184,0.628,2.48,0.98,3.788,0.98c2.048,0,4.1-0.768,5.66-2.312l7.78-7.68c1.512-1.492,2.344-3.484,2.344-5.608
			c0-2.124-0.832-4.112-2.344-5.604c-3.116-3.08-8.192-3.084-11.32,0l-7.78,7.68c-1.512,1.492-2.34,3.484-2.34,5.608
			c0,1.332,0.364,2.596,0.98,3.732L176.08,62.386c-14.044-13.116-32.784-21.312-53.464-21.848V24.602
			c3.052-0.928,5.292-3.732,5.292-7.084V7.438c0-4.1-3.336-7.436-7.436-7.436c-4.1,0-7.436,3.336-7.436,7.436v10.084
			c0,3.352,2.244,6.156,5.296,7.084v15.936c-20.54,0.532-39.164,8.628-53.176,21.588l-10.96-10.96
			c0.572-1.064,0.904-2.248,0.904-3.492c0-1.992-0.772-3.86-2.172-5.26L45.8,35.29c-2.796-2.8-7.72-2.8-10.512,0
			c-1.4,1.4-2.172,3.264-2.172,5.256s0.772,3.86,2.172,5.256l7.128,7.128c1.452,1.452,3.352,2.176,5.256,2.176
			c1.208,0,2.404-0.324,3.496-0.908l10.908,10.908C48.548,79.014,40.08,97.702,39.524,118.334h-14.92
			c-0.928-3.052-3.732-5.292-7.084-5.292H7.436c-4.1,0-7.436,3.336-7.436,7.436c0,4.1,3.336,7.436,7.436,7.436H17.52
			c3.352,0,6.156-2.244,7.084-5.296h14.92c0.552,20.4,8.844,38.888,22.108,52.748l-16.82,16.604
			c-3.036-1.616-6.896-1.196-9.448,1.332l-7.78,7.68c-1.512,1.492-2.344,3.484-2.344,5.608c0,2.124,0.832,4.116,2.344,5.608
			c1.56,1.54,3.608,2.312,5.66,2.312c2.048,0,4.096-0.768,5.66-2.312l7.78-7.68c1.508-1.492,2.34-3.484,2.34-5.608
			c0-1.336-0.364-2.6-0.98-3.736l16.824-16.608c14.044,13.116,32.784,21.312,53.464,21.848v15.932
			c-3.052,0.928-5.296,3.732-5.296,7.084v10.084c0,4.1,3.336,7.436,7.436,7.436c4.1,0,7.436-3.336,7.436-7.436V223.43
			c0-3.348-2.24-6.156-5.292-7.084V200.41c6.876-0.18,13.532-1.2,19.88-2.976c0.136,0.068,0.288,0.108,0.412,0.2l0.356-0.396
			c6.848-1.984,13.288-4.868,19.256-8.464c0.304-0.056,0.612-0.072,0.912-0.012l0.192-0.652c4.356-2.72,8.42-5.832,12.168-9.296
			l10.96,10.96c-1.504,2.812-1.104,6.384,1.264,8.752l7.128,7.128c1.4,1.4,3.264,2.172,5.256,2.172s3.856-0.772,5.256-2.168
			c1.4-1.4,2.172-3.264,2.172-5.256s-0.772-3.856-2.172-5.256l-7.128-7.128c-2.276-2.276-5.932-2.668-8.732-1.248l-10.92-10.928
			c13.528-13.908,21.992-32.596,22.552-53.228h14.92c0.928,3.052,3.732,5.296,7.084,5.296h10.084c4.1,0,7.436-3.336,7.436-7.436
			C240.952,116.374,237.612,113.038,233.512,113.038z M17.524,125.642H7.44c-2.848,0-5.168-2.316-5.168-5.168
			s2.316-5.168,5.168-5.168h10.084c2.848,0,5.168,2.316,5.168,5.168C22.692,123.326,20.372,125.642,17.524,125.642z M39.468,121.482
			H24.856c0.044-0.332,0.104-0.664,0.104-1.008s-0.056-0.676-0.104-1.008h14.612c-0.004,0.34-0.052,0.668-0.052,1.008
			C39.416,120.814,39.464,121.142,39.468,121.482z M191.452,90.862c3.224,7.5,5.184,15.628,5.804,24.12
			c-2.256-3.696-4.056-7.652-5.08-11.932C191.224,99.082,191,94.934,191.452,90.862z M195.864,38.05l7.78-7.68
			c1.12-1.108,2.592-1.66,4.064-1.66s2.944,0.552,4.068,1.66c1.076,1.064,1.668,2.48,1.668,3.992c0,1.512-0.592,2.932-1.668,3.996
			l-7.78,7.68c-2.244,2.216-5.892,2.216-8.132,0c-1.076-1.064-1.668-2.48-1.668-3.992C194.196,40.53,194.788,39.11,195.864,38.05z
			 M193.528,46.758c0.232,0.308,0.46,0.616,0.74,0.892c0.276,0.272,0.58,0.488,0.884,0.712l-16.604,16.392
			c-0.536-0.544-1.072-1.076-1.624-1.604L193.528,46.758z M176.544,68.47c2.668,2.796,5.152,5.76,7.368,8.932
			c-0.02,4.86,0.376,9.712,1.284,14.508l0.04,0.208c0.224,1.18,0.456,2.404,0.248,3.548c-0.332,1.86-1.724,3.284-3.256,4.604
			c-2.876-8.544-7.532-16.268-13.516-22.804C171.004,74.206,173.632,71.21,176.544,68.47z M183.844,139.666
			c1.324-1.088,2.648-2.328,3.38-3.976c1.46-3.288,0.068-7.052-1.348-10.324c-0.104-0.236-0.284-0.612-0.5-1.016
			c0.08-1.292,0.2-2.568,0.2-3.88c0-2.748-0.232-5.436-0.572-8.092c1.376,1.068,2.428,2.34,2.96,3.124
			c3.832,5.64,5.084,13.452,3.424,21.432c-0.728,3.516-1.848,6.308-3.42,8.54c-2.74,3.884-6.932,6.2-11.7,7.952
			c2.392-3.944,4.388-8.144,5.896-12.58C182.716,140.442,183.312,140.102,183.844,139.666z M182.688,139.378
			c1.312-4.2,2.172-8.588,2.584-13.1c1.3,3.072,2.356,6.26,1.12,9.048c-0.656,1.476-1.892,2.624-3.128,3.644
			C183.08,139.122,182.872,139.234,182.688,139.378z M75.764,161.414c-9.668-10.272-15.736-23.836-16.272-38.8H86.3
			c0.48,7.716,3.5,14.736,8.264,20.244L75.764,161.414z M76.196,167.454c-1.78-0.268-3.536-0.712-5.16-1.496
			c-3.54-1.708-6.516-5.08-8.38-9.496c-1.008-2.384-1.948-5.9-1.488-9.636C64.756,154.67,69.896,161.662,76.196,167.454z
			 M120.472,90.186c1.62,0,3.2,0.164,4.748,0.412c-5,2.56-10.128,4.872-15.436,6.712c1.78-2.64,4.124-4.84,6.616-6.816
			C117.736,90.314,119.088,90.186,120.472,90.186z M119.468,86.238V60.242c0.34-0.004,0.668-0.052,1.008-0.052
			c0.34,0,0.672,0.044,1.008,0.052v25.996c-0.34-0.012-0.668-0.052-1.008-0.052C120.136,86.186,119.808,86.226,119.468,86.238z
			 M154.712,119.466h26.804c0.004,0.34,0.052,0.668,0.052,1.008c0,0.34-0.048,0.668-0.052,1.008h-26.804
			c0.012-0.336,0.052-0.668,0.052-1.008C154.764,120.134,154.72,119.802,154.712,119.466z M154.656,118.33
			c-0.48-7.716-3.504-14.736-8.264-20.24l18.8-18.556c9.664,10.272,15.732,23.836,16.268,38.796H154.656z M110.14,143.594
			c-0.356-0.456-1.076-1.232-1.888-1.316c-0.384-0.036-0.684,0.068-0.956,0.292c-0.716,0.6-0.48,1.668-0.404,2.016
			c0.256,1.18,0.644,2.328,1.1,3.452c-1.388-0.632-2.72-1.356-3.984-2.18c-1.024-3.536-1.608-7.172-1.672-10.852
			c-0.016-0.88,0.004-1.88,0.468-2.628c0.52-0.832,1.356-1.044,1.964-1.072c1.376-0.036,3.108,0.756,4.016,1.956
			c0.772,1.02,1.28,2.192,1.816,3.436c0.528,1.232,1.08,2.504,1.912,3.608c3.896,5.164,11.868,4.228,15.112,3.588
			c4.788-0.948,9.4-2.588,13.708-4.88c0.512-0.272,1.02-0.552,1.528-0.832c1.048-0.584,2.136-1.14,3.24-1.644
			c-5.148,8.192-14.096,13.732-24.364,14.16C116.88,149.442,112.8,146.986,110.14,143.594z M121.484,154.706v25.996
			c-0.34,0.008-0.668,0.052-1.008,0.052c-0.34,0-0.668-0.044-1.008-0.052v-25.996c0.336,0.012,0.668,0.052,1.008,0.052
			C120.816,154.758,121.148,154.718,121.484,154.706z M118.684,150.674c-3.34-0.2-6.544-0.924-9.512-2.124
			c-0.608-1.332-1.08-2.732-1.392-4.156c-0.132-0.584-0.096-0.964,0.096-1.128c0.084-0.072,0.172-0.1,0.276-0.084
			c0.332,0.036,0.832,0.416,1.268,0.972C111.668,147.018,114.88,149.23,118.684,150.674z M142.424,137.39
			c-0.504,0.276-1.008,0.556-1.512,0.828c-4.232,2.248-8.756,3.86-13.46,4.792c-3.076,0.608-10.62,1.512-14.216-3.248
			c-0.764-1.016-1.268-2.184-1.8-3.416c-0.532-1.24-1.084-2.516-1.924-3.624c-1.092-1.444-3.016-2.384-4.784-2.316
			c-1.168,0.056-2.124,0.584-2.692,1.496c-0.596,0.956-0.624,2.116-0.604,3.124c0.06,3.384,0.532,6.74,1.392,10.012
			c-3.272-2.356-6.044-5.348-8.156-8.792c-0.536-3.188-0.752-6.62,1.092-9.204c0.748-1.044,1.828-1.924,2.872-2.776
			c1.74-1.416,3.536-2.876,3.896-5.156c0.436-2.744-1.468-5.152-3.592-7.344c-2.372-2.444-4.524-3.436-6.352-3.084
			c0.224-0.528,0.492-1.028,0.744-1.54c4.384,2.056,8.536,4.572,12.376,6.952l1.764,1.092c-0.668,1.636-1.052,3.416-1.052,5.288
			c0,6.584,4.568,12.088,10.688,13.608c1.244,0.608,2.544,1.04,3.756,1.196c0.688,0.088,1.376,0.128,2.06,0.128
			c2.68,0,5.324-0.604,7.9-1.192l18.392-4.216c-0.612,1.828-1.384,3.576-2.312,5.232C145.34,135.826,143.852,136.594,142.424,137.39
			z M93.488,134.154c-1.268-2.492-2.208-5.176-2.748-8.004c0.692-1.232,1.5-2.396,2.456-3.444c0.18-0.196,0.364-0.392,0.552-0.588
			c0.836-0.884,1.704-1.796,2.152-2.984c0.62-1.64,0.26-3.624-0.9-4.94c-0.924-1.048-2.332-1.612-3.732-1.604
			c0.268-0.988,0.58-1.956,0.944-2.9c2-0.832,4.376,0.956,6.072,2.708c1.964,2.02,3.724,4.22,3.352,6.568
			c-0.308,1.936-1.896,3.228-3.576,4.596c-1.092,0.892-2.224,1.812-3.04,2.952C93.476,128.678,93.236,131.362,93.488,134.154z
			 M90.532,124.778c-0.2-1.408-0.34-2.84-0.34-4.304c0-2.4,0.312-4.724,0.84-6.968c1.216-0.088,2.48,0.372,3.288,1.288
			c0.944,1.072,1.236,2.684,0.732,4.02c-0.384,1.012-1.152,1.824-1.964,2.68c-0.192,0.2-0.38,0.4-0.564,0.6
			C91.768,122.922,91.12,123.834,90.532,124.778z M110.412,120.474c0-5.552,4.512-10.064,10.064-10.064
			c5.548,0,10.064,4.516,10.064,10.064c0,5.548-4.516,10.064-10.064,10.064C114.928,130.538,110.412,126.026,110.412,120.474z
			 M130.612,133.33c-2.916,0.664-5.92,1.308-8.904,1.084c7.172-0.636,12.832-6.604,12.832-13.936
			c0-7.756-6.308-14.064-14.064-14.064c-5.556,0-10.328,3.268-12.612,7.96l-1.688-1.048c-3.864-2.392-8.036-4.924-12.456-7
			c1.836-3.46,4.324-6.52,7.296-9.024c-0.228,0.636-0.532,1.244-0.704,1.896c-0.736,2.752-0.488,4.836,0.736,6.2
			c0.876,0.98,2.028,1.372,3.276,1.372c2.008,0,4.264-1.016,6.028-2.252c1.592-1.112,3.156-2.324,4.668-3.492
			c2.592-2.008,5.276-4.084,8.164-5.712c1.92-1.084,5.02-2.5,8.496-2.956c1.304,0.52,2.56,1.128,3.768,1.82l-4.876,4.32
			c-0.52,0.46-1.168,1.036-1.452,1.832c-0.268,0.76-0.184,1.536,0.244,2.244c0.872,1.436,2.948,2.312,4.616,2.544
			c4.032,0.556,8.24,0.344,12.208-0.576c1.232,1.98,2.248,4.108,3,6.36c-2.572-0.04-5.168,0.812-7.168,2.432
			c-2.672,2.16-4.232,5.632-4.076,9.064c0.028,0.588,0.104,1.352,0.476,2.044c0.696,1.304,2.172,1.872,3.604,1.872
			c0.428,0,0.856-0.052,1.252-0.152c1.34-0.332,2.508-1.064,3.64-1.772c0.288-0.18,0.58-0.364,0.872-0.54
			c0.92-0.548,1.884-0.996,2.872-1.396c-0.144,2.256-0.524,4.448-1.14,6.54L130.612,133.33z M108.864,98.582
			c6.196-2.076,12.2-4.68,17.98-7.712c1.092,0.236,2.16,0.54,3.204,0.888c-2.388,0.496-4.848,1.376-7.308,2.768
			c-2.944,1.664-5.656,3.756-8.272,5.784c-1.5,1.164-3.056,2.364-4.632,3.468c-2.56,1.788-6.216,3.132-8.108,1.016
			c-1.004-1.12-1.184-2.924-0.536-5.36c0.28-1.08,0.676-2.12,1.12-3.136c3.592-2.704,7.784-4.644,12.36-5.54
			c-2.44,2.064-4.692,4.372-6.344,7.164l-0.62,1.048L108.864,98.582z M136.252,94.666c3.76,2.312,6.992,5.392,9.432,9.052
			c-3.776,0.84-7.76,1.032-11.584,0.5c-1.456-0.204-3.284-0.996-3.968-2.116c-0.292-0.476-0.344-0.956-0.164-1.468
			c0.208-0.58,0.736-1.048,1.2-1.46L136.252,94.666z M147.328,123.07c-0.296,0.176-0.592,0.364-0.888,0.548
			c-1.116,0.7-2.172,1.364-3.372,1.664c-1.404,0.332-3.16,0.012-3.84-1.272c-0.224-0.416-0.336-0.924-0.368-1.66
			c-0.148-3.148,1.288-6.332,3.74-8.316c1.924-1.556,4.44-2.312,6.904-2.192c0.356,1.192,0.62,2.416,0.824,3.664
			c-3.076,0.896-5.976,2.46-8.336,4.58c-0.356,0.32-0.748,0.704-0.912,1.232c-0.164,0.516-0.068,1.072,0.268,1.564
			c0.42,0.616,1.172,1.048,1.916,1.1c0.072,0.004,0.144,0.004,0.216,0.004c1.076,0,2.06-0.528,2.988-1.028
			c1.388-0.748,2.824-1.384,4.272-1.98c-0.004,0.152-0.016,0.3-0.024,0.448C149.548,121.886,148.408,122.422,147.328,123.07z
			 M145.98,122.194c-0.864,0.464-1.76,0.928-2.652,0.884c-0.472-0.032-0.964-0.316-1.232-0.708c-0.124-0.18-0.248-0.464-0.152-0.784
			c0.096-0.308,0.372-0.58,0.652-0.828c2.232-2.008,4.968-3.496,7.86-4.356c0.16,1.188,0.264,2.384,0.284,3.604
			C149.128,120.662,147.532,121.362,145.98,122.194z M145.624,97.25c-0.516-0.56-1.044-1.104-1.596-1.628l18.768-18.524
			c0.552,0.524,1.092,1.056,1.624,1.6L145.624,97.25z M156.3,66.858c3.812,0.008,7.624,0.16,11.404,0.636l-4.804,4.328
			C160.804,70.042,158.612,68.37,156.3,66.858z M161.948,76.338l-18.76,18.52c-5.552-4.928-12.7-8.072-20.568-8.564V60.298
			C137.784,60.822,151.536,66.802,161.948,76.338z M118.336,86.294c-7.84,0.488-14.96,3.608-20.504,8.504L79.196,76.162
			c10.392-9.432,24.064-15.344,39.14-15.864V86.294z M96.988,95.562c-0.488,0.46-0.964,0.936-1.424,1.428L76.888,78.314
			c0.472-0.48,0.972-0.928,1.46-1.392L96.988,95.562z M94.804,97.826c-4.9,5.544-8.016,12.668-8.504,20.504H59.492
			c0.544-15.148,6.752-28.872,16.628-39.188L94.804,97.826z M86.24,119.466c-0.012,0.34-0.052,0.668-0.052,1.008
			c0,0.34,0.04,0.668,0.052,1.008H59.432c-0.004-0.34-0.052-0.668-0.052-1.008c0-0.34,0.044-0.672,0.052-1.008H86.24z
			 M95.328,143.698c0.516,0.56,1.044,1.104,1.596,1.628L78.156,163.85c-0.552-0.524-1.092-1.056-1.624-1.6L95.328,143.698z
			 M97.764,146.09c5.552,4.928,12.7,8.072,20.572,8.564v25.996c-15.168-0.524-28.92-6.504-39.332-16.04L97.764,146.09z
			 M120.476,184.754c4.156,0,8.204-0.424,12.144-1.164c-1.54,0.532-3.16,0.908-4.772,1.252l-1.128,0.244
			c-5.384,1.156-10.952,2.348-16.512,2.56c-6.732,0.256-12.468-0.984-17.072-3.692c-2.864-1.684-4.844-3.796-5.72-6.096
			c-0.276-0.724-0.404-1.54-0.436-2.368C96.784,181.33,108.22,184.754,120.476,184.754z M122.616,180.65v-25.996
			c7.84-0.488,14.96-3.608,20.504-8.504l18.632,18.632C151.364,174.214,137.692,180.13,122.616,180.65z M143.96,145.386
			c0.492-0.464,0.964-0.936,1.428-1.428l18.676,18.676c-0.476,0.48-0.972,0.928-1.464,1.392L143.96,145.386z M146.152,143.122
			c4.896-5.544,8.016-12.664,8.5-20.504h26.804c-0.54,15.144-6.748,28.868-16.624,39.184L146.152,143.122z M175.908,67.778
			c-2.908,2.74-5.528,5.744-7.824,9c-1.432-1.52-2.932-2.968-4.504-4.344l6.192-5.576l-0.968-0.132
			c-4.664-0.636-9.372-0.892-14.08-0.812c-5.388-3.308-11.288-5.852-17.568-7.5c1.408-1.656,3.064-2.884,5.16-3.264
			c2.824-0.508,5.664,0.668,8.412,1.812l0.28,0.116c6.564,2.716,13.368,4.816,20.296,6.396
			C172.892,64.85,174.436,66.274,175.908,67.778z M169.932,62.238c-6.336-1.532-12.56-3.512-18.576-6.004l-0.28-0.116
			c-2.872-1.188-5.836-2.416-8.92-1.864c-2.484,0.448-4.38,1.936-5.964,3.912c-3.508-0.864-7.12-1.456-10.824-1.728
			c1.328-3.84,2.744-7.648,4.248-11.42C144.856,46.806,158.744,52.97,169.932,62.238z M115.308,17.518V7.438
			c0-2.848,2.316-5.168,5.168-5.168c2.848,0,5.168,2.316,5.168,5.168v10.084c0,2.848-2.316,5.168-5.168,5.168
			C117.624,22.686,115.308,20.37,115.308,17.518z M121.484,24.854v15.628c-0.34-0.004-0.668-0.052-1.008-0.052
			c-0.34,0-0.668,0.048-1.008,0.052V24.854c0.332,0.044,0.664,0.104,1.008,0.104S121.152,24.902,121.484,24.854z M120.476,44.43
			c2.78,0,5.52,0.164,8.224,0.448c-1.512,3.804-2.944,7.64-4.28,11.512c-1.312-0.08-2.612-0.196-3.944-0.196
			c-9.72,0-18.92,2.176-27.212,5.964c3.48-4.22,7.024-8.388,10.744-12.368c1.316-1.412,2.772-2.868,4.284-4.312
			C112.268,44.85,116.32,44.43,120.476,44.43z M95.132,48.746c-7.42,7.496-15.052,15.256-21.052,24.188
			c-0.64,0.952-1.74,1.948-2.608,2.012c-0.316,0.028-0.556-0.08-0.768-0.316c-0.376-0.416-0.388-1.124-0.04-2.236
			c1.864-5.976,5.084-11.348,8.908-16.248C84.424,53.13,89.632,50.642,95.132,48.746z M77.464,57.41
			c-3.272,4.48-5.996,9.356-7.664,14.708c-0.284,0.912-0.568,2.224,0.236,3.116c0.368,0.404,0.832,0.616,1.36,0.616
			c0.048,0,0.096,0,0.144-0.004c1.22-0.088,2.532-1.272,3.296-2.412c6.052-9.012,13.816-16.856,21.32-24.44l0.956-0.968
			c3.108-0.98,6.316-1.724,9.58-2.308c-1.176,1.16-2.296,2.324-3.352,3.452c-4.168,4.464-8.128,9.148-12,13.904
			c-10.552,5.244-19.456,13.22-25.768,23.012c-0.048-0.108-0.108-0.208-0.152-0.316c-2.06-4.936-2.832-10.424-2.396-15.8
			C67.308,65.234,72.116,60.974,77.464,57.41z M44.024,51.326l-7.128-7.128c-2.016-2.012-2.016-5.292,0-7.308
			c0.968-0.972,2.268-1.504,3.652-1.504c1.384,0,2.684,0.536,3.656,1.508l7.128,7.128c2.016,2.016,2.016,5.296,0,7.308
			C49.316,53.342,46.036,53.342,44.024,51.326z M52.148,53.574c0.268-0.204,0.54-0.396,0.784-0.64
			c0.244-0.24,0.44-0.516,0.644-0.784l10.74,10.74c-0.488,0.464-0.992,0.908-1.468,1.384L52.148,53.574z M62.068,71.014
			c-0.256,5.156,0.548,10.376,2.52,15.1c0.128,0.304,0.284,0.588,0.424,0.884c-2.332,3.756-4.28,7.76-5.804,11.972
			c-0.252-2.552-0.616-5.3-1.716-7.816c-0.716-1.644-1.728-3.14-2.704-4.588c-0.608-0.9-1.22-1.836-1.764-2.784
			C55.588,79.21,58.64,74.95,62.068,71.014z M52.524,84.678c0.488,0.812,0.996,1.624,1.516,2.392
			c0.952,1.416,1.94,2.876,2.624,4.444c1.212,2.776,1.504,5.94,1.764,8.732c0.02,0.228,0.036,0.456,0.056,0.684
			c-0.848,2.624-1.496,5.328-2.004,8.084c-1.664-5.1-5.06-9.388-8.86-13.092C48.968,92.03,50.58,88.258,52.524,84.678z
			 M43.416,120.474c0-4.58,0.484-9.04,1.272-13.4c0.352,0.264,0.704,0.524,1.016,0.84c3.816,3.844,3.484,10.18,1.556,14.436
			c-0.88,1.952-2.104,3.72-3.472,5.372C43.556,125.338,43.416,122.922,43.416,120.474z M43.932,128.998
			c1.64-1.9,3.112-3.964,4.156-6.272c2.116-4.684,2.4-11.28-1.74-15.452c-0.456-0.46-0.964-0.864-1.5-1.224
			c0.616-3.14,1.428-6.208,2.424-9.196c4.064,4.016,7.596,8.716,8.868,14.36c-0.448,3.032-0.756,6.108-0.756,9.264
			c0,0.944,0.104,1.864,0.144,2.8c-1.464,5.216-4.136,10.168-6.712,14.356c-0.756,1.232-1.584,2.428-2.4,3.628
			C45.268,137.29,44.412,133.202,43.932,128.998z M56.412,162.666c-2.468-3.636-4.596-7.512-6.408-11.552
			c1.584-1.348,3.392-2.14,5.18-2.192c0.656-0.012,1.088,0.092,1.356,0.344c0.296,0.272,0.412,0.748,0.492,1.216
			c0.5,2.94,0.104,6.072-0.28,9.096C56.624,160.602,56.508,161.634,56.412,162.666z M45.088,202.902l-7.78,7.68
			c-2.244,2.216-5.892,2.212-8.132,0c-1.076-1.064-1.668-2.48-1.668-3.996s0.592-2.932,1.668-3.996l7.78-7.68
			c1.12-1.108,2.592-1.66,4.068-1.66c1.476,0,2.944,0.552,4.068,1.66c1.076,1.064,1.668,2.48,1.668,3.996
			S46.164,201.838,45.088,202.902z M47.424,194.19c-0.232-0.308-0.46-0.616-0.74-0.892c-0.276-0.272-0.58-0.488-0.884-0.712
			l16.604-16.388c0.536,0.544,1.072,1.076,1.624,1.604L47.424,194.19z M80.476,182.538c-0.06,0.86-0.24,1.704-0.452,2.54
			c-2.988-1.828-5.888-3.784-8.588-5.988c1.58-0.04,3.14-0.224,4.596-0.644l0.2-0.06c0.764-0.228,1.552-0.464,2.272-0.284
			C80.064,178.482,80.62,180.602,80.476,182.538z M92.028,191.07c-3.896-1.536-7.612-3.392-11.164-5.504
			c0.264-0.972,0.456-1.964,0.532-2.976c0.156-2.144-0.444-4.84-2.664-5.384c-0.944-0.236-1.904,0.048-2.748,0.296l-0.196,0.056
			c-1.688,0.488-3.516,0.672-5.344,0.62c-4.984-4.196-9.416-9.012-13.18-14.332c0.076-1.356,0.208-2.736,0.388-4.156
			c0.392-3.092,0.796-6.288,0.272-9.36c-0.108-0.628-0.276-1.276-0.768-1.732c-0.448-0.416-1.092-0.612-2-0.584
			c-1.932,0.056-3.86,0.876-5.556,2.276c-1.104-2.548-2.056-5.172-2.88-7.856c0.972-1.436,1.96-2.864,2.864-4.332
			c2.212-3.6,4.512-7.756,6.076-12.176c0.584,6.8,2.204,13.308,4.772,19.344c0,0.004-0.004,0.012-0.004,0.016
			c-0.984,4.468,0.212,8.736,1.392,11.524c1.948,4.62,5.084,8.156,8.824,9.96c2.12,1.024,4.42,1.472,6.708,1.716
			c2.716,2.384,5.628,4.536,8.72,6.448c-0.048,1.072,0.1,2.176,0.504,3.236c0.948,2.5,3.06,4.768,6.104,6.56
			c4.348,2.56,9.668,3.848,15.824,3.848c0.572,0,1.156-0.008,1.744-0.032c5.64-0.212,11.248-1.416,16.668-2.58l1.148-0.248
			c2.876-0.616,5.848-1.252,8.324-2.936c0.032-0.02,0.06-0.056,0.092-0.08c3.752-0.94,7.376-2.184,10.836-3.74
			c-0.396,0.704-0.828,1.384-1.336,1.976c-3.664,4.268-9.464,6.248-14.104,7.5c-11.956,3.22-24.776,4.144-37.072,2.684
			C93.916,191.014,92.952,190.91,92.028,191.07z M125.64,223.426v10.084c0,2.848-2.316,5.168-5.168,5.168
			c-2.848,0-5.168-2.316-5.168-5.168v-10.084c0-2.848,2.316-5.168,5.168-5.168C123.324,218.262,125.64,220.578,125.64,223.426z
			 M119.468,216.094v-15.628c0.34,0.004,0.668,0.052,1.008,0.052c0.34,0,0.668-0.048,1.008-0.052v15.628
			c-0.332-0.044-0.664-0.104-1.008-0.104S119.8,216.046,119.468,216.094z M164.172,183.042c-4.788,3.268-9.976,5.98-15.464,8.12
			l1.552-1.736c4.584-5.124,9.32-10.416,14.352-15.26C165.712,176.822,165.052,179.97,164.172,183.042z M196.932,189.622
			l7.128,7.128c0.972,0.972,1.508,2.268,1.508,3.656s-0.536,2.684-1.508,3.652c-2.016,2.016-5.3,2.012-7.308,0l-7.128-7.128
			c-2.012-2.012-2.012-5.292,0-7.308C191.632,187.61,194.912,187.602,196.932,189.622z M188.808,187.382
			c-0.272,0.2-0.548,0.392-0.788,0.636c-0.244,0.244-0.436,0.516-0.64,0.784l-10.74-10.74c0.488-0.464,0.992-0.908,1.468-1.384
			L188.808,187.382z M165.36,182.158c0.812-3.108,1.224-6.252-0.204-8.972l-0.28-0.532l-0.436,0.416
			c-5.232,4.988-10.124,10.456-14.88,15.772l-2.656,2.968c-8.256,2.992-17.132,4.708-26.428,4.708
			c-9.076,0-17.748-1.636-25.84-4.492c0.024,0.004,0.044,0.004,0.068,0.008c12.396,1.476,25.332,0.536,37.4-2.712
			c4.768-1.284,10.736-3.332,14.56-7.784c0.788-0.92,1.404-2.02,1.932-3.176c5.072-2.412,9.788-5.416,14.028-8.988l5.276-2.568
			c0.348-0.168,0.644-0.268,0.916-0.292c0.252,0.008,0.44,0.108,0.596,0.308c0.424,0.556,0.448,1.712,0.252,2.572
			c-0.128,0.516-0.456,2.28,0.276,3.36c0.28,0.416,0.688,0.676,1.18,0.752c0.092,0.016,0.188,0.02,0.28,0.02
			c0.512,0,0.988-0.212,1.4-0.416c2.456-1.22,4.696-2.852,6.86-4.432c0.26-0.188,0.528-0.376,0.788-0.568
			C176.088,173.442,171,178.15,165.36,182.158z M182.156,165.862c-1.02,0.692-2.056,1.376-3.032,2.088
			c-2.136,1.556-4.34,3.168-6.728,4.352c-0.376,0.188-0.768,0.368-1.136,0.312c-0.248-0.04-0.428-0.156-0.572-0.364
			c-0.42-0.62-0.344-1.816-0.152-2.652c0.228-0.988,0.256-2.448-0.416-3.324c-0.32-0.416-0.76-0.644-1.28-0.664
			c-0.54,0.008-1,0.212-1.348,0.384l-2.42,1.176c3.972-3.704,7.464-7.884,10.4-12.464c5.384-1.848,10.14-4.328,13.232-8.708
			c1.644-2.336,2.812-5.24,3.564-8.88c1.708-8.22,0.408-16.284-3.564-22.128c-1.16-1.704-2.492-2.96-3.904-3.852
			c-0.504-3.408-1.216-6.752-2.24-9.964c1.704-1.448,3.408-3.096,3.816-5.348c0.236-1.312-0.012-2.616-0.252-3.876l-0.04-0.208
			c-0.812-4.308-1.224-8.66-1.28-13.024c2.276,3.4,4.256,7,5.964,10.752c-0.676,4.592-0.552,9.296,0.52,13.792
			c1.172,4.9,3.36,9.36,6.052,13.496c0.06,1.24,0.192,2.46,0.192,3.716C197.536,137.498,191.768,153.178,182.156,165.862z
			 M216.096,121.482h-14.612c0.004-0.34,0.052-0.668,0.052-1.008c0-0.34-0.048-0.668-0.052-1.008h14.612
			c-0.044,0.332-0.104,0.664-0.104,1.008S216.048,121.15,216.096,121.482z M233.512,125.642h-10.084
			c-2.848,0-5.168-2.316-5.168-5.168s2.316-5.168,5.168-5.168h10.084c2.848,0,5.168,2.316,5.168,5.168
			C238.68,123.326,236.364,125.642,233.512,125.642z"/>
	</g>
</g>
</svg>
