<?xml version="1.0" encoding="iso-8859-1"?>
<!-- Generator: Adobe Illustrator 19.0.0, SVG Export Plug-In . SVG Version: 6.00 Build 0)  -->
<svg version="1.1" xmlns="http://www.w3.org/2000/svg" xmlns:xlink="http://www.w3.org/1999/xlink" x="0px" y="0px"
	 viewBox="0 0 511.999 511.999" style="enable-background:new 0 0 511.999 511.999;" xml:space="preserve">
<g>
	<g>
		<path d="M277.077,267.328c-4.009-4.009-10.507-4.009-14.518,0l-53.282,53.282c-4.009,4.009-4.009,10.509,0,14.519
			c2.005,2.005,4.632,3.007,7.259,3.007c2.627,0,5.254-1.002,7.259-3.007l53.282-53.282
			C281.086,277.839,281.086,271.338,277.077,267.328z"/>
	</g>
</g>
<g>
	<g>
		<path d="M288.845,245.295c-13.211,0-13.233,20.532,0,20.532C302.056,265.827,302.078,245.295,288.845,245.295z"/>
	</g>
</g>
<g>
	<g>
		<path d="M511.605,498.935l-15.923-56.186c-0.477-1.686-1.379-3.221-2.618-4.461L341.313,286.537l83.442-83.442
			c3.998-3.998,4.01-10.475,0.029-14.49l-1.262-1.272c-39.581-39.579-102.637-41.975-145.06-7.125l-71.482-71.482l5.647-97.87
			c0.245-4.253-2.161-8.216-6.049-9.959c-3.888-1.743-8.448-0.903-11.46,2.109L3.012,195.128c-3.013,3.013-3.851,7.572-2.109,11.46
			c1.662,3.705,5.34,6.064,9.365,6.064c0.197,0,0.396-0.005,0.594-0.017l97.859-5.648l71.482,71.483
			c-34.848,42.42-32.452,105.472,7.125,145.047l1.242,1.242c1.925,1.925,4.537,3.008,7.259,3.008c0,0,0,0,0.001,0
			c2.723,0,5.333-1.081,7.258-3.007l83.436-83.436L438.272,493.07c1.239,1.239,2.775,2.139,4.461,2.618l56.196,15.923
			c0.924,0.262,1.864,0.389,2.799,0.389c2.686,0,5.309-1.055,7.26-3.007C511.619,506.361,512.62,502.514,511.605,498.935z
			 M108.231,186.449l-71.64,4.135L190.578,36.588l-4.135,71.649L108.231,186.449z M127.245,196.472l69.222-69.221l67.106,67.106
			l-69.226,69.218L127.245,196.472z M279.263,319.54c-0.07,0.07-0.129,0.146-0.197,0.218l-82.944,82.935
			c-28.2-34.267-26.386-85.234,5.504-117.349l83.481-83.482l0.229-0.228c32.127-31.901,83.112-33.706,117.358-5.514l-83.08,83.087
			c-0.025,0.025-0.052,0.045-0.077,0.07L279.263,319.54z M450.901,476.664L301.044,326.807l25.75-25.75l149.863,149.862
			l10.181,35.927L450.901,476.664z"/>
	</g>
</g>

</svg>
